<?xml version="1.0" ?><!DOCTYPE svg  PUBLIC '-//W3C//DTD SVG 1.1//EN'  'http://www.w3.org/Graphics/SVG/1.1/DTD/svg11.dtd'><svg enable-background="new 0 0 512 512" id="Layer_1" version="1.1" viewBox="0 0 512 512" xml:space="preserve" xmlns="http://www.w3.org/2000/svg" xmlns:xlink="http://www.w3.org/1999/xlink"><linearGradient gradientUnits="userSpaceOnUse" id="SVGID_1_" x1="256" x2="256" y1="512" y2="-9.094947e-013"><stop offset="0" style="stop-color:#F857A6"/><stop offset="1" style="stop-color:#FF5858"/></linearGradient><circle cx="256" cy="256" fill="url(#SVGID_1_)" r="256"/><path d="M370.4,159.2c-14.1-14.1-32.9-21.8-52.9-21.8s-38.8,7.7-52.9,21.8l-8.2,8.2c-0.2,0.2-0.6,0.2-0.8,0l-8.2-8.2  c-14.1-14.1-32.8-21.8-52.9-21.8c-20,0-38.8,7.7-52.9,21.8c-29.2,29.2-29.2,76.6,0,105.8L248,371.3c2.1,2.1,5,3.3,8,3.3  c3,0,5.9-1.2,8-3.3L370.4,265c14.1-14.1,21.8-32.9,21.8-52.9C392.2,192.1,384.4,173.3,370.4,159.2z M362.8,257.4L256.4,363.7  c-0.2,0.2-0.6,0.2-0.8,0L149.3,257.4c-25-25-25-65.6,0-90.6c12-12,28.1-18.7,45.3-18.7s33.3,6.6,45.3,18.7l8.2,8.2  c2.1,2.1,5,3.3,8,3.3c3,0,5.9-1.2,8-3.3l8.2-8.2c12-12,28.1-18.7,45.3-18.7c17.2,0,33.2,6.6,45.3,18.7c12,12.1,18.7,28.1,18.7,45.3  C381.4,229.2,374.8,245.3,362.8,257.4z" fill="#FFFFFF"/></svg>