<?xml version="1.0" ?><!DOCTYPE svg  PUBLIC '-//W3C//DTD SVG 1.1//EN'  'http://www.w3.org/Graphics/SVG/1.1/DTD/svg11.dtd'><svg enable-background="new 0 0 512 512" id="Layer_1" version="1.1" viewBox="0 0 512 512" xml:space="preserve" xmlns="http://www.w3.org/2000/svg" xmlns:xlink="http://www.w3.org/1999/xlink"><linearGradient gradientUnits="userSpaceOnUse" id="SVGID_1_" x1="256" x2="256" y1="512" y2="-9.094947e-013"><stop offset="0" style="stop-color:#F857A6"/><stop offset="1" style="stop-color:#FF5858"/></linearGradient><circle cx="256" cy="256" fill="url(#SVGID_1_)" r="256"/><g><path d="M213.2,129h-59.1c-9.2,0-16.6,7.5-16.6,16.6v220.7c0,9.2,7.5,16.6,16.6,16.6h59.1c9.2,0,16.6-7.5,16.6-16.6   V145.7C229.9,136.5,222.4,129,213.2,129z M217.4,366.3c0,2.3-1.9,4.2-4.2,4.2h-59.1c-2.3,0-4.2-1.9-4.2-4.2V145.7   c0-2.3,1.9-4.2,4.2-4.2h59.1c2.3,0,4.2,1.9,4.2,4.2V366.3z" fill="#FFFFFF"/><path d="M357.8,129h-59.1c-9.2,0-16.6,7.5-16.6,16.6v220.7c0,9.2,7.5,16.6,16.6,16.6h59.1c9.2,0,16.6-7.5,16.6-16.6   V145.7C374.5,136.5,367,129,357.8,129z M362,366.3c0,2.3-1.9,4.2-4.2,4.2h-59.1c-2.3,0-4.2-1.9-4.2-4.2V145.7   c0-2.3,1.9-4.2,4.2-4.2h59.1c2.3,0,4.2,1.9,4.2,4.2V366.3z" fill="#FFFFFF"/></g></svg>