<?xml version="1.0" ?><!DOCTYPE svg  PUBLIC '-//W3C//DTD SVG 1.1//EN'  'http://www.w3.org/Graphics/SVG/1.1/DTD/svg11.dtd'><svg enable-background="new 0 0 512 512" id="Layer_1" version="1.1" viewBox="0 0 512 512" xml:space="preserve" xmlns="http://www.w3.org/2000/svg" xmlns:xlink="http://www.w3.org/1999/xlink"><linearGradient gradientUnits="userSpaceOnUse" id="SVGID_1_" x1="256" x2="256" y1="512" y2="-9.094947e-013"><stop offset="0" style="stop-color:#FF512F"/><stop offset="1" style="stop-color:#F09819"/></linearGradient><circle cx="256" cy="256" fill="url(#SVGID_1_)" r="256"/><path d="M347.6,238L188.8,130.4c-3.6-2.5-7.8-3.8-12.1-3.8c-12,0-21.8,9.8-21.8,21.8v215.1c0,12,9.8,21.8,21.8,21.8  h0c4.3,0,8.5-1.3,12.1-3.8L347.6,274c6-4,9.5-10.8,9.5-18C357.1,248.8,353.6,242.1,347.6,238z M340.6,263.7L181.8,371.3  c-1.6,1.1-3.3,1.6-5.2,1.6h0c-4.5,0-9.4-3.6-9.4-9.3V148.4c0-5.8,4.9-9.3,9.4-9.3c1.8,0,3.6,0.5,5.2,1.6l158.8,107.6  c2.6,1.8,4.1,4.6,4.1,7.7S343.2,262,340.6,263.7z" fill="#FFFFFF"/></svg>