<?xml version="1.0" ?><svg viewBox="0 0 64 64" xmlns="http://www.w3.org/2000/svg"><title/><g id="Play"><circle cx="32" cy="32" r="30" style="fill:#93b5e1"/><path d="M62,32A30,30,0,0,1,2,32c0-.49.01-.98.04-1.46a30,30,0,0,0,59.92,0C61.99,31.02,62,31.51,62,32Z" style="opacity:0.15"/><circle cx="32" cy="32" r="24" style="fill:#848ccf"/><path d="M56,32A24,24,0,0,1,8,32c0-.51.02-1.01.05-1.5a23.9967,23.9967,0,0,0,47.9,0C55.98,30.99,56,31.49,56,32Z" style="opacity:0.15"/><path d="M44.8779,30.2681l-.0009,0L26.0615,19.4053a2.0005,2.0005,0,0,0-3,1.7319V42.8628a1.9959,1.9959,0,0,0,3,1.7324L44.8779,33.7319a2.0016,2.0016,0,0,0,0-3.4638Z" style="fill:#fff"/><path d="M45.88,32a1.9909,1.9909,0,0,1-1,1.73L26.06,44.6a1.976,1.976,0,0,1-1,.27,1.9428,1.9428,0,0,1-1-.28,1.9789,1.9789,0,0,1-1-1.73v-3a1.9789,1.9789,0,0,0,1,1.73,1.9428,1.9428,0,0,0,1,.28,1.976,1.976,0,0,0,1-.27L44.88,30.73a1.78,1.78,0,0,0,.31-.23A1.94,1.94,0,0,1,45.88,32Z" style="opacity:0.15"/><path d="M44.8779,30.2681l-.0009,0L26.0615,19.4053a2.0005,2.0005,0,0,0-3,1.7319V42.8628a1.9959,1.9959,0,0,0,3,1.7324L44.8779,33.7319a2.0016,2.0016,0,0,0,0-3.4638ZM25.0615,42.8628V21.1372L43.877,32Z" style="fill:#3282b8"/><path d="M32,2A30,30,0,1,0,62,32,30.034,30.034,0,0,0,32,2Zm0,58A28,28,0,1,1,60,32,28.0314,28.0314,0,0,1,32,60Z" style="fill:#3282b8"/><path d="M32,8A24,24,0,1,0,56,32,24.0275,24.0275,0,0,0,32,8Zm0,46A22,22,0,1,1,54,32,22.0248,22.0248,0,0,1,32,54Z" style="fill:#3282b8"/></g></svg>