<?xml version="1.0" ?><svg viewBox="0 0 64 64" xmlns="http://www.w3.org/2000/svg"><title/><g id="Record"><circle cx="32" cy="32" r="30" style="fill:#93b5e1"/><path d="M62,32A30,30,0,0,1,2,32c0-.49.01-.98.04-1.46a30,30,0,0,0,59.92,0C61.99,31.02,62,31.51,62,32Z" style="opacity:0.15"/><circle cx="32" cy="32" r="24" style="fill:#848ccf"/><path d="M56,32A24,24,0,0,1,8,32c0-.51.02-1.01.05-1.5a23.9967,23.9967,0,0,0,47.9,0C55.98,30.99,56,31.49,56,32Z" style="opacity:0.15"/><circle cx="32" cy="32" r="13" style="fill:#fff"/><path d="M45,32a13,13,0,0,1-26,0,12.3318,12.3318,0,0,1,.09-1.5,12.9964,12.9964,0,0,0,25.82,0A12.3318,12.3318,0,0,1,45,32Z" style="opacity:0.15"/><path d="M32,2A30,30,0,1,0,62,32,30.034,30.034,0,0,0,32,2Zm0,58A28,28,0,1,1,60,32,28.0314,28.0314,0,0,1,32,60Z" style="fill:#3282b8"/><path d="M32,8A24,24,0,1,0,56,32,24.0275,24.0275,0,0,0,32,8Zm0,46A22,22,0,1,1,54,32,22.0248,22.0248,0,0,1,32,54Z" style="fill:#3282b8"/><path d="M32,19A13,13,0,1,0,45,32,13.0147,13.0147,0,0,0,32,19Zm0,24A11,11,0,1,1,43,32,11.0125,11.0125,0,0,1,32,43Z" style="fill:#3282b8"/></g></svg>