<?xml version="1.0" ?><!DOCTYPE svg  PUBLIC '-//W3C//DTD SVG 1.1//EN'  'http://www.w3.org/Graphics/SVG/1.1/DTD/svg11.dtd'><svg enable-background="new 0 0 512 512" id="Layer_1" version="1.1" viewBox="0 0 512 512" xml:space="preserve" xmlns="http://www.w3.org/2000/svg" xmlns:xlink="http://www.w3.org/1999/xlink"><circle cx="256" cy="256" fill="#CC0000" id="ellipse" r="256"/><g id="logo" transform="translate(-273.27313,-435.95455)"><path d="M403.9,839h156.2c0,0-34.6-78.7-25.8-150.9s65.8-105.1,98.1-108.6s49.9,16.4,49.9,16.4   l7-10.6c0,0-46.4-47-105.1-41.7c-58.7,5.3-99.2,44-124.5,91c-25.2,47-39.9,79.9-49.9,129.2C399.8,813.2,403.9,839,403.9,839z" fill="#FFFFFF" id="path3966"/><path d="M372.8,760.3l30.5,2.3l-5.3,30.5l-28.8-3.5L372.8,760.3z" fill="#FFFFFF" id="path3968"/><path d="M420.9,695.7l8.2-22.9l-27-10.6l-8.8,24.7L420.9,695.7z" fill="#FFFFFF" id="path3970"/><path d="M459.1,617.1l15.9-18.8l-20.5-13.5L438,603L459.1,617.1z" fill="#FFFFFF" id="path3972"/><path d="M500.8,544.3l14.1,17l19.4-11.2l-14.1-15.9L500.8,544.3z" fill="#FFFFFF" id="path3974"/><path d="M569.5,524.9l3.5,17l24.1-0.6l-2.4-15.3L569.5,524.9z" fill="#FFFFFF" id="path3976"/><path d="M651.1,543.1l-0.6,10.6l16.4,8.8l3.5-5.3L651.1,543.1z" fill="#FFFFFF" id="path3978"/><path d="M647.6,588.3v8.8l15.9,1.8v-7L647.6,588.3z" fill="#FFFFFF" id="path3980"/><path d="M597.1,595.9l7.6,14.1l11.2-8.8l-2.3-9.4L597.1,595.9z" fill="#FFFFFF" id="path3982"/><path d="M573,614.1l11.7,17.6l-7,12.3l-17-18.8L573,614.1z" fill="#FFFFFF" id="path3984"/><path d="M549.5,662.9l-7.6,15.3l20,17l4.7-19.4L549.5,662.9z" fill="#FFFFFF" id="path3986"/><path d="M541.3,716.3l-1.2,20.5l24.7,10.6l-1.2-19.4L541.3,716.3z" fill="#FFFFFF" id="path3988"/><path d="M548.4,789.1l5.9,21.1l31.1,1.8l-11.2-22.9L548.4,789.1L548.4,789.1z" fill="#FFFFFF" id="path3990"/></g></svg>