<?xml version="1.0" ?><!DOCTYPE svg  PUBLIC '-//W3C//DTD SVG 1.1//EN'  'http://www.w3.org/Graphics/SVG/1.1/DTD/svg11.dtd'><svg enable-background="new 0 0 512 512" id="Layer_1" version="1.1" viewBox="0 0 512 512" xml:space="preserve" xmlns="http://www.w3.org/2000/svg" xmlns:xlink="http://www.w3.org/1999/xlink"><linearGradient gradientUnits="userSpaceOnUse" id="SVGID_1_" x1="256" x2="256" y1="512" y2="-9.094947e-013"><stop offset="0" style="stop-color:#232526"/><stop offset="1" style="stop-color:#414345"/></linearGradient><circle cx="256" cy="256" fill="url(#SVGID_1_)" r="256"/><g><path d="M256.9,197.5c-33.3,0-60.3,27.1-60.3,60.3c0,33.3,27.1,60.3,60.3,60.3s60.3-27.1,60.3-60.3   C317.2,224.6,290.2,197.5,256.9,197.5z M256.9,307.1c-27.2,0-49.3-22.1-49.3-49.3s22.1-49.3,49.3-49.3c27.2,0,49.3,22.1,49.3,49.3   S284.1,307.1,256.9,307.1z" fill="#FFFFFF"/><path d="M374.4,216.2h-4.1c-4.7,0-6.5-3.6-6.9-4.6c-0.5-1.1-1.7-4.9,1.6-8.2l2.9-2.9c7.2-7.2,7.2-19,0-26.2   l-30.1-30.1c-3.5-3.5-8.2-5.4-13.1-5.4c-5,0-9.6,1.9-13.1,5.4l-2.9,2.9c-1.8,1.8-3.9,2.2-5.2,2.2c-1.9,0-3.9-0.8-5.3-2.1   c-1-1-2.3-2.7-2.3-5.4v-4.1c0-10.2-8.3-18.6-18.6-18.6h-42.5c-10.2,0-18.6,8.3-18.6,18.6v5.2c0,4.7-3.9,7.5-7.6,7.5   c-1.4,0-3.4-0.4-5.2-2.2l-2.9-2.9c-3.5-3.5-8.2-5.4-13.1-5.4c-5,0-9.6,1.9-13.1,5.4l-30.1,30.1c-3.5,3.5-5.4,8.2-5.4,13.1   c0,5,1.9,9.6,5.4,13.1l1.9,1.9c3.3,3.3,2.1,7.1,1.6,8.2c-0.5,1.1-2.3,4.6-6.9,4.6h-3.1c-10.2,0-18.6,8.3-18.6,18.6v42.5   c0,10.2,8.3,18.6,18.6,18.6h4.1c4.7,0,6.5,3.6,6.9,4.6c0.5,1.1,1.7,4.9-1.6,8.2l-2.9,2.9c-3.5,3.5-5.4,8.2-5.4,13.1   c0,5,1.9,9.6,5.4,13.1l30.1,30.1c3.5,3.5,8.2,5.4,13.1,5.4c5,0,9.6-1.9,13.1-5.4l2.9-2.9c1.8-1.8,3.9-2.2,5.2-2.2   c3.7,0,7.6,2.8,7.6,7.5v4.1c0,10.2,8.3,18.6,18.6,18.6h42.5c10.2,0,18.6-8.3,18.6-18.6v-3.1c0-4.7,3.9-7.5,7.6-7.5   c1.4,0,3.4,0.4,5.2,2.2l2.9,2.9c3.5,3.5,8.2,5.4,13.1,5.4c5,0,9.6-1.9,13.1-5.4l30.1-30.1c7.2-7.2,7.2-19,0-26.2l-4-4   c-3.3-3.3-2.1-7.1-1.6-8.2c0.5-1.1,2.3-4.6,6.9-4.6h5.2c10.2,0,18.6-8.3,18.6-18.6v-42.5C393,224.5,384.7,216.2,374.4,216.2z    M381.9,277.3c0,4.1-3.4,7.5-7.5,7.5h-5.2c-7.6,0-14.2,4.4-17.1,11.5c-2.9,7.1-1.4,14.8,4,20.2l4,4c2.9,2.9,2.9,7.7,0,10.6   L330,361.1c-1.4,1.4-3.3,2.2-5.3,2.2c-2,0-3.9-0.8-5.3-2.2l-2.9-2.9c-3.5-3.5-8.1-5.5-13-5.5c-10.3,0-18.6,8.3-18.6,18.6v3.1   c0,4.1-3.4,7.5-7.5,7.5h-42.5c-4.1,0-7.5-3.4-7.5-7.5v-4.1c0-10.2-8.4-18.6-18.6-18.6c-4.9,0-9.5,1.9-13,5.5l-2.9,2.9   c-1.4,1.4-3.3,2.2-5.3,2.2c-2,0-3.9-0.8-5.3-2.2L151.9,330c-1.4-1.4-2.2-3.3-2.2-5.3c0-2,0.8-3.9,2.2-5.3l2.9-2.9   c5.4-5.4,6.9-13.2,4-20.2c-2.9-7.1-9.5-11.5-17.1-11.5h-4.1c-4.1,0-7.5-3.4-7.5-7.5v-42.5c0-4.1,3.4-7.5,7.5-7.5h3.1   c7.6,0,14.2-4.4,17.1-11.5c2.9-7.1,1.4-14.8-4-20.2l-1.9-1.9c-1.4-1.4-2.2-3.3-2.2-5.3c0-2,0.8-3.9,2.2-5.3L182,153   c1.4-1.4,3.3-2.2,5.3-2.2c2,0,3.9,0.8,5.3,2.2l2.9,2.9c3.5,3.5,8.1,5.5,13,5.5c10.3,0,18.6-8.3,18.6-18.6v-5.2   c0-4.1,3.4-7.5,7.5-7.5h42.5c4.1,0,7.5,3.4,7.5,7.5v4.1c0,5.2,2.1,10,5.8,13.5c3.5,3.2,8.1,5.1,12.8,5.1c4.9,0,9.5-1.9,13-5.5   l2.9-2.9c1.4-1.4,3.3-2.2,5.3-2.2c2,0,3.9,0.8,5.3,2.2l30.1,30.1c2.9,2.9,2.9,7.7,0,10.6l-2.9,2.9c-5.4,5.4-6.9,13.2-4,20.2   c2.9,7.1,9.5,11.5,17.1,11.5h4.1c4.1,0,7.5,3.4,7.5,7.5V277.3z" fill="#FFFFFF"/></g></svg>