<?xml version="1.0" ?><svg viewBox="0 0 64 64" xmlns="http://www.w3.org/2000/svg"><title/><g id="Stop"><circle cx="32" cy="32" r="30" style="fill:#93b5e1"/><path d="M62,32A30,30,0,0,1,2,32c0-.49.01-.98.04-1.46a30,30,0,0,0,59.92,0C61.99,31.02,62,31.51,62,32Z" style="opacity:0.15"/><circle cx="32" cy="32" r="24" style="fill:#848ccf"/><path d="M56,32A24,24,0,0,1,8,32c0-.51.02-1.01.05-1.5a23.9967,23.9967,0,0,0,47.9,0C55.98,30.99,56,31.49,56,32Z" style="opacity:0.15"/><rect height="26" rx="1" style="fill:#fff" width="24" x="20" y="19"/><path d="M44,41v3a1.0029,1.0029,0,0,1-1,1H21a1.0029,1.0029,0,0,1-1-1V41a1.0029,1.0029,0,0,0,1,1H43A1.0029,1.0029,0,0,0,44,41Z" style="opacity:0.15"/><path d="M32,2A30,30,0,1,0,62,32,30.034,30.034,0,0,0,32,2Zm0,58A28,28,0,1,1,60,32,28.0314,28.0314,0,0,1,32,60Z" style="fill:#3282b8"/><path d="M32,8A24,24,0,1,0,56,32,24.0275,24.0275,0,0,0,32,8Zm0,46A22,22,0,1,1,54,32,22.0248,22.0248,0,0,1,32,54Z" style="fill:#3282b8"/><path d="M43,19H21a1,1,0,0,0-1,1V44a1,1,0,0,0,1,1H43a1,1,0,0,0,1-1V20A1,1,0,0,0,43,19ZM42,43H22V21H42Z" style="fill:#3282b8"/></g></svg>